<svg xmlns="http://www.w3.org/2000/svg" width="900" height="540" viewBox="0 0 900 540"><style>text{font-family:Arial,sans-serif;fill:#203047}.t{font-size:19px;font-weight:bold}.s{font-size:11px;fill:#5b6b80}.l{font-size:12px}.v{font-size:12px;font-weight:bold}.g{stroke:#d9e2ec;stroke-width:1}</style><rect width="100%" height="100%" fill="white"/><text class="t" x="25" y="31">Overall question scores</text><text class="s" x="25" y="53">Mean rating across 24 responses; full 0–5 scale.</text><line class="g" x1="250.0" y1="82" x2="250.0" y2="530"/><text class="s" x="250.0" y="72" text-anchor="middle">0</text><line class="g" x1="362.0" y1="82" x2="362.0" y2="530"/><text class="s" x="362.0" y="72" text-anchor="middle">1</text><line class="g" x1="474.0" y1="82" x2="474.0" y2="530"/><text class="s" x="474.0" y="72" text-anchor="middle">2</text><line class="g" x1="586.0" y1="82" x2="586.0" y2="530"/><text class="s" x="586.0" y="72" text-anchor="middle">3</text><line class="g" x1="698.0" y1="82" x2="698.0" y2="530"/><text class="s" x="698.0" y="72" text-anchor="middle">4</text><line class="g" x1="810.0" y1="82" x2="810.0" y2="530"/><text class="s" x="810.0" y="72" text-anchor="middle">5</text><text class="l" x="240" y="110" text-anchor="end">Understanding</text><rect x="250" y="94" width="532.0" height="22" rx="4" fill="#0f766e"/><text class="v" x="789.0" y="110">4.75 / 5</text><text class="l" x="240" y="154" text-anchor="end">Overall satisfaction</text><rect x="250" y="138" width="532.0" height="22" rx="4" fill="#0f766e"/><text class="v" x="789.0" y="154">4.75 / 5</text><text class="l" x="240" y="198" text-anchor="end">Real-world application</text><rect x="250" y="182" width="527.3333333333333" height="22" rx="4" fill="#0f766e"/><text class="v" x="784.3333333333333" y="198">4.71 / 5</text><text class="l" x="240" y="242" text-anchor="end">Relevance</text><rect x="250" y="226" width="522.6666666666667" height="22" rx="4" fill="#159a8c"/><text class="v" x="779.6666666666667" y="242">4.67 / 5</text><text class="l" x="240" y="286" text-anchor="end">Knowledge / skills</text><rect x="250" y="270" width="522.6666666666667" height="22" rx="4" fill="#159a8c"/><text class="v" x="779.6666666666667" y="286">4.67 / 5</text><text class="l" x="240" y="330" text-anchor="end">Facilitator clarity</text><rect x="250" y="314" width="522.6666666666667" height="22" rx="4" fill="#159a8c"/><text class="v" x="779.6666666666667" y="330">4.67 / 5</text><text class="l" x="240" y="374" text-anchor="end">Confidence</text><rect x="250" y="358" width="508.6666666666667" height="22" rx="4" fill="#159a8c"/><text class="v" x="765.6666666666667" y="374">4.54 / 5</text><text class="l" x="240" y="418" text-anchor="end">Organization</text><rect x="250" y="402" width="504.0" height="22" rx="4" fill="#159a8c"/><text class="v" x="761.0" y="418">4.50 / 5</text><text class="l" x="240" y="462" text-anchor="end">Difficulty fit</text><rect x="250" y="446" width="504.0" height="22" rx="4" fill="#159a8c"/><text class="v" x="761.0" y="462">4.50 / 5</text><text class="l" x="240" y="506" text-anchor="end">Examples / activities</text><rect x="250" y="490" width="499.3333333333333" height="22" rx="4" fill="#bd7a20"/><text class="v" x="756.3333333333333" y="506">4.46 / 5</text></svg>