<svg xmlns="http://www.w3.org/2000/svg" width="1000" height="540" viewBox="0 0 1000 540"><style>text{font-family:Arial,sans-serif;fill:#203047}.t{font-size:19px;font-weight:bold}.s{font-size:11px;fill:#5b6b80}.l{font-size:12px}.v{font-size:12px;font-weight:bold}.g{stroke:#d9e2ec;stroke-width:1}</style><rect width="100%" height="100%" fill="white"/><text class="t" x="25" y="31">Rating distribution by question</text><text class="s" x="25" y="53">Numeric scale anchors were absent from the export; 4–5 = positive, 3 = neutral, 1–2 = negative for analysis.</text><line class="g" x1="245.0" y1="88" x2="245.0" y2="456"/><text class="s" x="245.0" y="78" text-anchor="middle">0%</text><line class="g" x1="413.75" y1="88" x2="413.75" y2="456"/><text class="s" x="413.75" y="78" text-anchor="middle">25%</text><line class="g" x1="582.5" y1="88" x2="582.5" y2="456"/><text class="s" x="582.5" y="78" text-anchor="middle">50%</text><line class="g" x1="751.25" y1="88" x2="751.25" y2="456"/><text class="s" x="751.25" y="78" text-anchor="middle">75%</text><line class="g" x1="920.0" y1="88" x2="920.0" y2="456"/><text class="s" x="920.0" y="78" text-anchor="middle">100%</text><text class="l" x="235" y="113" text-anchor="end">Q1 Understanding</text><rect x="245.0" y="99" width="168.75" height="20" fill="#7dd3a7"/><text class="s" x="329.375" y="113" text-anchor="middle">25.0%</text><rect x="413.75" y="99" width="506.25" height="20" fill="#0f766e"/><text class="s" x="666.875" y="113" text-anchor="middle">75.0%</text><text class="l" x="235" y="149" text-anchor="end">Q2 Confidence</text><rect x="245.0" y="135" width="309.375" height="20" fill="#7dd3a7"/><text class="s" x="399.6875" y="149" text-anchor="middle">45.8%</text><rect x="554.375" y="135" width="365.625" height="20" fill="#0f766e"/><text class="s" x="737.1875" y="149" text-anchor="middle">54.2%</text><text class="l" x="235" y="185" text-anchor="end">Q3 Relevance</text><rect x="245.0" y="171" width="225.0" height="20" fill="#7dd3a7"/><text class="s" x="357.5" y="185" text-anchor="middle">33.3%</text><rect x="470.0" y="171" width="450.0" height="20" fill="#0f766e"/><text class="s" x="695.0" y="185" text-anchor="middle">66.7%</text><text class="l" x="235" y="221" text-anchor="end">Q4 Knowledge / skills</text><rect x="245.0" y="207" width="225.0" height="20" fill="#7dd3a7"/><text class="s" x="357.5" y="221" text-anchor="middle">33.3%</text><rect x="470.0" y="207" width="450.0" height="20" fill="#0f766e"/><text class="s" x="695.0" y="221" text-anchor="middle">66.7%</text><text class="l" x="235" y="257" text-anchor="end">Q5 Facilitator clarity</text><rect x="245.0" y="243" width="225.0" height="20" fill="#7dd3a7"/><text class="s" x="357.5" y="257" text-anchor="middle">33.3%</text><rect x="470.0" y="243" width="450.0" height="20" fill="#0f766e"/><text class="s" x="695.0" y="257" text-anchor="middle">66.7%</text><text class="l" x="235" y="293" text-anchor="end">Q6 Examples / activities</text><rect x="245.0" y="279" width="84.375" height="20" fill="#94a3b8"/><text class="s" x="287.1875" y="293" text-anchor="middle">12.5%</text><rect x="329.375" y="279" width="196.875" height="20" fill="#7dd3a7"/><text class="s" x="427.8125" y="293" text-anchor="middle">29.2%</text><rect x="526.25" y="279" width="393.75" height="20" fill="#0f766e"/><text class="s" x="723.125" y="293" text-anchor="middle">58.3%</text><text class="l" x="235" y="329" text-anchor="end">Q7 Organization</text><rect x="245.0" y="315" width="84.375" height="20" fill="#94a3b8"/><text class="s" x="287.1875" y="329" text-anchor="middle">12.5%</text><rect x="329.375" y="315" width="168.75" height="20" fill="#7dd3a7"/><text class="s" x="413.75" y="329" text-anchor="middle">25.0%</text><rect x="498.125" y="315" width="421.875" height="20" fill="#0f766e"/><text class="s" x="709.0625" y="329" text-anchor="middle">62.5%</text><text class="l" x="235" y="365" text-anchor="end">Q8 Difficulty fit</text><rect x="245.0" y="351" width="28.125" height="20" fill="#94a3b8"/><text class="s" x="259.0625" y="365" text-anchor="middle"></text><rect x="273.125" y="351" width="281.25" height="20" fill="#7dd3a7"/><text class="s" x="413.75" y="365" text-anchor="middle">41.7%</text><rect x="554.375" y="351" width="365.625" height="20" fill="#0f766e"/><text class="s" x="737.1875" y="365" text-anchor="middle">54.2%</text><text class="l" x="235" y="401" text-anchor="end">Q9 Real-world application</text><rect x="245.0" y="387" width="196.875" height="20" fill="#7dd3a7"/><text class="s" x="343.4375" y="401" text-anchor="middle">29.2%</text><rect x="441.875" y="387" width="478.125" height="20" fill="#0f766e"/><text class="s" x="680.9375" y="401" text-anchor="middle">70.8%</text><text class="l" x="235" y="437" text-anchor="end">Q10 Overall satisfaction</text><rect x="245.0" y="423" width="28.125" height="20" fill="#94a3b8"/><text class="s" x="259.0625" y="437" text-anchor="middle"></text><rect x="273.125" y="423" width="112.5" height="20" fill="#7dd3a7"/><text class="s" x="329.375" y="437" text-anchor="middle">16.7%</text><rect x="385.625" y="423" width="534.375" height="20" fill="#0f766e"/><text class="s" x="652.8125" y="437" text-anchor="middle">79.2%</text><text class="s" x="25" y="520">No 1–2 responses occurred. Neutral (3) ratings occur only on examples/activities, organization, difficulty fit, and satisfaction.</text></svg>